<mxfile host="app.diagrams.net" modified="2024-04-14T07:10:18.316Z" agent="Mozilla/5.0 (Windows NT 10.0; Win64; x64) AppleWebKit/537.36 (KHTML, like Gecko) Chrome/116.0.0.0 Safari/537.36" version="24.2.2" etag="H63V1wLK8bHey8ueNr4k" type="github">
  <diagram name="第 1 页" id="hoCxnrX4Yo5vWfYn0t6Z">
    <mxGraphModel>
      <root>
        <mxCell id="0" />
        <mxCell id="1" parent="0" />
      </root>
    </mxGraphModel>
  </diagram>
</mxfile>
